<svg xmlns="http://www.w3.org/2000/svg" viewBox="0 0 420 120" role="img" aria-label="Clínica Vasconcelos Odontologia">
  <defs>
    <linearGradient id="gold" x1="0" y1="0" x2="1" y2="1">
      <stop offset="0" stop-color="#CEA64E"/>
      <stop offset="0.5" stop-color="#B5812F"/>
      <stop offset="1" stop-color="#89591F"/>
    </linearGradient>
  </defs>
  <!-- tooth + heart icon (placeholder — substituir pela logo oficial) -->
  <g transform="translate(8,18)" fill="url(#gold)">
    <path d="M42 6c-7 0-10 4-16 4S17 6 10 6C2 6-2 13 1 25c2 9 5 17 8 30 1 5 3 9 7 9 5 0 6-6 7-12 1-7 2-11 3-11s2 4 3 11c1 6 2 12 7 12 4 0 6-4 7-9 3-13 6-21 8-30 3-12-1-19-9-19z"/>
    <path fill="#FCF9F2" d="M26 18c2.2-3 7-2.6 7 1.4 0 3-3.6 5.2-7 8-3.4-2.8-7-5-7-8 0-4 4.8-4.4 7-1.4z"/>
  </g>
  <text x="78" y="58" font-family="Lora, Georgia, serif" font-size="30" font-weight="600" fill="#5C3615">Vasconcelos</text>
  <text x="79" y="86" font-family="'Nunito Sans', Arial, sans-serif" font-size="13" letter-spacing="6" fill="#89591F">ODONTOLOGIA</text>
</svg>
